ffmpeg started on 2026-04-01 at 13:04:06
Report written to "D:\Convert\FFMetrics\reports\ssim_report-6.txt"
Log level: 32
Command line:
ffmpeg -hide_banner -nostdin -r 24000/1001 -i "F:\\Convert\\files\\[DC] Make Heroine ga Oosugiru - 07_Telegram_HEVC(297).mkv" -r 24000/1001 -i "F:\\Convert\\files\\[DC] Make Heroine ga Oosugiru - 07_Telegram.mp4" -lavfi "[0:v]settb=AVTB,setpts=PTS-STARTPTS,format=pix_fmts=yuv420p10le,fps=24000/1001,scale=1920:1080:flags=lanczos:param0=3:out_range=limited:out_color_matrix=bt709:out_chroma_loc=left,setsar=1/1,setdar=(1920/1080)*(1/1),colorspace=format=yuv420p10:range=tv:primaries=bt709:trc=bt709:space=bt709:fast=0[main];[1:v]settb=AVTB,setpts=PTS-STARTPTS,format=pix_fmts=yuv420p,fps=24000/1001,scale=1920:1080:flags=lanczos:param0=3:out_range=limited:out_color_matrix=bt709:out_chroma_loc=left,setsar=1/1,setdar=(1920/1080)*(1/1),colorspace=format=yuv420p:range=tv:primaries=bt709:trc=bt709:space=bt709:fast=0[ref];[main][ref]ssim=eof_action=endall:stats_file='D\\:/Convert/FFMetrics/logs/ssim_logfile-6.txt'" -f null -
Input #0, matroska,webm, from 'F:\Convert\files\[DC] Make Heroine ga Oosugiru - 07_Telegram_HEVC(297).mkv':
  Metadata:
    COMPATIBLE_BRANDS: isomiso2avc1mp41
    MAJOR_BRAND     : isom
    MINOR_VERSION   : 512
    ENCODER         : Lavf61.7.100
  Duration: 00:24:06.79, start: -0.021000, bitrate: 966 kb/s
  Stream #0:0: Video: hevc (Main 10), yuv420p10le(tv, bt709, progressive), 1920x1080 [SAR 1:1 DAR 16:9], 23.98 fps, 23.98 tbr, 1k tbn (default)
      Metadata:
        HANDLER_NAME    : VideoHandler
        VENDOR_ID       : [0][0][0][0]
        ENCODER         : Lavc61.19.100 libx265
        BPS             : 769342
        DURATION        : 00:24:06.569708333
        NUMBER_OF_FRAMES: 34683
        NUMBER_OF_BYTES : 139113435
        _STATISTICS_WRITING_APP: mkvpropedit v94.0 ('Initiate') 64-bit
        _STATISTICS_WRITING_DATE_UTC: 2026-03-31 07:42:41
        _STATISTICS_TAGS: BPS DURATION NUMBER_OF_FRAMES NUMBER_OF_BYTES
  Stream #0:1: Audio: aac (LC), 48000 Hz, stereo, fltp (default)
      Metadata:
        HANDLER_NAME    : SoundHandler
        VENDOR_ID       : [0][0][0][0]
        ENCODER         : Lavc61.19.100 aac
        BPS             : 193194
        DURATION        : 00:24:06.784000000
        NUMBER_OF_FRAMES: 67819
        NUMBER_OF_BYTES : 34938755
        _STATISTICS_WRITING_APP: mkvpropedit v94.0 ('Initiate') 64-bit
        _STATISTICS_WRITING_DATE_UTC: 2026-03-31 07:42:41
        _STATISTICS_TAGS: BPS DURATION NUMBER_OF_FRAMES NUMBER_OF_BYTES
Input #1, mov,mp4,m4a,3gp,3g2,mj2, from 'F:\Convert\files\[DC] Make Heroine ga Oosugiru - 07_Telegram.mp4':
  Metadata:
    major_brand     : isom
    minor_version   : 512
    compatible_brands: isomiso2avc1mp41
    encoder         : Lavf60.16.100
  Duration: 00:24:06.74, start: 0.000000, bitrate: 3764 kb/s
  Stream #1:0[0x1](und): Video: h264 (High) (avc1 / 0x31637661), yuv420p(tv, bt709, progressive), 1920x1080 [SAR 1:1 DAR 16:9], 3616 kb/s, 23.98 fps, 23.98 tbr, 24k tbn (default)
      Metadata:
        handler_name    : VideoHandler
        vendor_id       : [0][0][0][0]
        encoder         : Lavc60.31.102 h264_qsv
  Stream #1:1[0x2](und): Audio: aac (HE-AACv2) (mp4a / 0x6134706D), 48000 Hz, stereo, fltp, 144 kb/s (default)
      Metadata:
        handler_name    : SoundHandler
        vendor_id       : [0][0][0][0]
Stream mapping:
  Stream #0:0 (hevc) -> settb:default
  Stream #1:0 (h264) -> settb:default
  ssim:default -> Stream #0:0 (wrapped_avframe)
  Stream #0:1 -> #0:1 (aac (native) -> pcm_s16le (native))
Output #0, null, to 'pipe:':
  Metadata:
    COMPATIBLE_BRANDS: isomiso2avc1mp41
    MAJOR_BRAND     : isom
    MINOR_VERSION   : 512
    encoder         : Lavf61.7.100
  Stream #0:0: Video: wrapped_avframe, yuv420p10le(tv, bt709, progressive), 1920x1080 [SAR 1:1 DAR 16:9], q=2-31, 200 kb/s, 23.98 fps, 23.98 tbn
      Metadata:
        encoder         : Lavc61.19.100 wrapped_avframe
  Stream #0:1: Audio: pcm_s16le, 48000 Hz, stereo, s16, 1536 kb/s (default)
      Metadata:
        HANDLER_NAME    : SoundHandler
        VENDOR_ID       : [0][0][0][0]
        _STATISTICS_TAGS: BPS DURATION NUMBER_OF_FRAMES NUMBER_OF_BYTES
        BPS             : 193194
        DURATION        : 00:24:06.784000000
        NUMBER_OF_FRAMES: 67819
        NUMBER_OF_BYTES : 34938755
        _STATISTICS_WRITING_APP: mkvpropedit v94.0 ('Initiate') 64-bit
        _STATISTICS_WRITING_DATE_UTC: 2026-03-31 07:42:41
        encoder         : Lavc61.19.100 pcm_s16le
frame=  124 fps=0.0 q=-0.0 size=N/A time=00:00:05.17 bitrate=N/A speed=10.1x    frame=  319 fps=314 q=-0.0 size=N/A time=00:00:13.30 bitrate=N/A speed=13.1x    frame=  518 fps=336 q=-0.0 size=N/A time=00:00:21.60 bitrate=N/A speed=  14x    frame=  716 fps=349 q=-0.0 size=N/A time=00:00:29.86 bitrate=N/A speed=14.5x    frame=  894 fps=348 q=-0.0 size=N/A time=00:00:37.28 bitrate=N/A speed=14.5x    frame= 1045 fps=338 q=-0.0 size=N/A time=00:00:43.58 bitrate=N/A speed=14.1x    frame= 1210 fps=336 q=-0.0 size=N/A time=00:00:50.46 bitrate=N/A speed=  14x    frame= 1373 fps=334 q=-0.0 size=N/A time=00:00:57.26 bitrate=N/A speed=13.9x    frame= 1538 fps=332 q=-0.0 size=N/A time=00:01:04.14 bitrate=N/A speed=13.8x    frame= 1683 fps=327 q=-0.0 size=N/A time=00:01:10.19 bitrate=N/A speed=13.6x    frame= 1852 fps=327 q=-0.0 size=N/A time=00:01:17.24 bitrate=N/A speed=13.7x    frame= 2029 fps=328 q=-0.0 size=N/A time=00:01:24.62 bitrate=N/A speed=13.7x    frame= 2128 fps=318 q=-0.0 size=N/A time=00:01:28.75 bitrate=N/A speed=13.3x    frame= 2285 fps=317 q=-0.0 size=N/A time=00:01:35.30 bitrate=N/A speed=13.2x    frame= 2429 fps=314 q=-0.0 size=N/A time=00:01:41.30 bitrate=N/A speed=13.1x    frame= 2558 fps=311 q=-0.0 size=N/A time=00:01:46.68 bitrate=N/A speed=  13x    frame= 2735 fps=312 q=-0.0 size=N/A time=00:01:54.07 bitrate=N/A speed=  13x    frame= 2906 fps=313 q=-0.0 size=N/A time=00:02:01.20 bitrate=N/A speed=13.1x    frame= 3094 fps=316 q=-0.0 size=N/A time=00:02:09.04 bitrate=N/A speed=13.2x    frame= 3282 fps=318 q=-0.0 size=N/A time=00:02:16.88 bitrate=N/A speed=13.3x    frame= 3473 fps=321 q=-0.0 size=N/A time=00:02:24.85 bitrate=N/A speed=13.4x    frame= 3662 fps=323 q=-0.0 size=N/A time=00:02:32.73 bitrate=N/A speed=13.5x    frame= 3852 fps=325 q=-0.0 size=N/A time=00:02:40.66 bitrate=N/A speed=13.6x    frame= 4036 fps=326 q=-0.0 size=N/A time=00:02:48.33 bitrate=N/A speed=13.6x    frame= 4227 fps=328 q=-0.0 size=N/A time=00:02:56.30 bitrate=N/A speed=13.7x    frame= 4427 fps=330 q=-0.0 size=N/A time=00:03:04.64 bitrate=N/A speed=13.8x    frame= 4618 fps=332 q=-0.0 size=N/A time=00:03:12.60 bitrate=N/A speed=13.8x    frame= 4803 fps=333 q=-0.0 size=N/A time=00:03:20.32 bitrate=N/A speed=13.9x    frame= 4991 fps=334 q=-0.0 size=N/A time=00:03:28.16 bitrate=N/A speed=13.9x    frame= 5185 fps=335 q=-0.0 size=N/A time=00:03:36.25 bitrate=N/A speed=  14x    frame= 5370 fps=336 q=-0.0 size=N/A time=00:03:43.97 bitrate=N/A speed=  14x    frame= 5557 fps=337 q=-0.0 size=N/A time=00:03:51.77 bitrate=N/A speed=14.1x    frame= 5756 fps=339 q=-0.0 size=N/A time=00:04:00.07 bitrate=N/A speed=14.1x    frame= 5949 fps=339 q=-0.0 size=N/A time=00:04:08.12 bitrate=N/A speed=14.2x    frame= 6139 fps=340 q=-0.0 size=N/A time=00:04:16.04 bitrate=N/A speed=14.2x    frame= 6332 fps=341 q=-0.0 size=N/A time=00:04:24.09 bitrate=N/A speed=14.2x    frame= 6522 fps=342 q=-0.0 size=N/A time=00:04:32.02 bitrate=N/A speed=14.3x    frame= 6710 fps=343 q=-0.0 size=N/A time=00:04:39.86 bitrate=N/A speed=14.3x    frame= 6900 fps=343 q=-0.0 size=N/A time=00:04:47.78 bitrate=N/A speed=14.3x    frame= 7088 fps=344 q=-0.0 size=N/A time=00:04:55.62 bitrate=N/A speed=14.3x    frame= 7278 fps=344 q=-0.0 size=N/A time=00:05:03.55 bitrate=N/A speed=14.4x    frame= 7469 fps=345 q=-0.0 size=N/A time=00:05:11.51 bitrate=N/A speed=14.4x    frame= 7646 fps=345 q=-0.0 size=N/A time=00:05:18.90 bitrate=N/A speed=14.4x    frame= 7831 fps=345 q=-0.0 size=N/A time=00:05:26.61 bitrate=N/A speed=14.4x    frame= 8008 fps=345 q=-0.0 size=N/A time=00:05:34.00 bitrate=N/A speed=14.4x    frame= 8200 fps=346 q=-0.0 size=N/A time=00:05:42.00 bitrate=N/A speed=14.4x    frame= 8377 fps=346 q=-0.0 size=N/A time=00:05:49.39 bitrate=N/A speed=14.4x    frame= 8561 fps=346 q=-0.0 size=N/A time=00:05:57.06 bitrate=N/A speed=14.4x    frame= 8748 fps=346 q=-0.0 size=N/A time=00:06:04.86 bitrate=N/A speed=14.4x    frame= 8932 fps=347 q=-0.0 size=N/A time=00:06:12.53 bitrate=N/A speed=14.5x    frame= 9128 fps=347 q=-0.0 size=N/A time=00:06:20.71 bitrate=N/A speed=14.5x    frame= 9310 fps=347 q=-0.0 size=N/A time=00:06:28.30 bitrate=N/A speed=14.5x    frame= 9489 fps=347 q=-0.0 size=N/A time=00:06:35.77 bitrate=N/A speed=14.5x    frame= 9674 fps=348 q=-0.0 size=N/A time=00:06:43.48 bitrate=N/A speed=14.5x    frame= 9854 fps=348 q=-0.0 size=N/A time=00:06:50.99 bitrate=N/A speed=14.5x    frame=10037 fps=348 q=-0.0 size=N/A time=00:06:58.62 bitrate=N/A speed=14.5x    frame=10222 fps=348 q=-0.0 size=N/A time=00:07:06.34 bitrate=N/A speed=14.5x    frame=10391 fps=347 q=-0.0 size=N/A time=00:07:13.39 bitrate=N/A speed=14.5x    frame=10570 fps=348 q=-0.0 size=N/A time=00:07:20.85 bitrate=N/A speed=14.5x    frame=10746 fps=348 q=-0.0 size=N/A time=00:07:28.19 bitrate=N/A speed=14.5x    frame=10929 fps=348 q=-0.0 size=N/A time=00:07:35.83 bitrate=N/A speed=14.5x    frame=11106 fps=348 q=-0.0 size=N/A time=00:07:43.21 bitrate=N/A speed=14.5x    frame=11279 fps=347 q=-0.0 size=N/A time=00:07:50.42 bitrate=N/A speed=14.5x    frame=11463 fps=347 q=-0.0 size=N/A time=00:07:58.10 bitrate=N/A speed=14.5x    frame=11644 fps=348 q=-0.0 size=N/A time=00:08:05.65 bitrate=N/A speed=14.5x    frame=11832 fps=348 q=-0.0 size=N/A time=00:08:13.49 bitrate=N/A speed=14.5x    frame=12010 fps=348 q=-0.0 size=N/A time=00:08:20.91 bitrate=N/A speed=14.5x    frame=12192 fps=348 q=-0.0 size=N/A time=00:08:28.50 bitrate=N/A speed=14.5x    frame=12372 fps=348 q=-0.0 size=N/A time=00:08:36.01 bitrate=N/A speed=14.5x    frame=12575 fps=348 q=-0.0 size=N/A time=00:08:44.48 bitrate=N/A speed=14.5x    frame=12755 fps=348 q=-0.0 size=N/A time=00:08:51.98 bitrate=N/A speed=14.5x    frame=12936 fps=349 q=-0.0 size=N/A time=00:08:59.53 bitrate=N/A speed=14.5x    frame=13117 fps=349 q=-0.0 size=N/A time=00:09:07.08 bitrate=N/A speed=14.5x    frame=13299 fps=349 q=-0.0 size=N/A time=00:09:14.67 bitrate=N/A speed=14.5x    frame=13479 fps=349 q=-0.0 size=N/A time=00:09:22.18 bitrate=N/A speed=14.5x    frame=13656 fps=349 q=-0.0 size=N/A time=00:09:29.56 bitrate=N/A speed=14.5x    frame=13841 fps=349 q=-0.0 size=N/A time=00:09:37.28 bitrate=N/A speed=14.5x    frame=14022 fps=349 q=-0.0 size=N/A time=00:09:44.83 bitrate=N/A speed=14.5x    frame=14196 fps=349 q=-0.0 size=N/A time=00:09:52.09 bitrate=N/A speed=14.5x    frame=14377 fps=349 q=-0.0 size=N/A time=00:09:59.64 bitrate=N/A speed=14.5x    frame=14561 fps=349 q=-0.0 size=N/A time=00:10:07.31 bitrate=N/A speed=14.5x    frame=14741 fps=349 q=-0.0 size=N/A time=00:10:14.82 bitrate=N/A speed=14.5x    frame=14932 fps=349 q=-0.0 size=N/A time=00:10:22.78 bitrate=N/A speed=14.6x    frame=15101 fps=349 q=-0.0 size=N/A time=00:10:29.83 bitrate=N/A speed=14.5x    frame=15262 fps=348 q=-0.0 size=N/A time=00:10:36.55 bitrate=N/A speed=14.5x    frame=15453 fps=349 q=-0.0 size=N/A time=00:10:44.51 bitrate=N/A speed=14.5x    frame=15646 fps=349 q=-0.0 size=N/A time=00:10:52.56 bitrate=N/A speed=14.5x    frame=15825 fps=349 q=-0.0 size=N/A time=00:11:00.03 bitrate=N/A speed=14.5x    frame=16015 fps=349 q=-0.0 size=N/A time=00:11:07.95 bitrate=N/A speed=14.6x    frame=16211 fps=349 q=-0.0 size=N/A time=00:11:16.13 bitrate=N/A speed=14.6x    frame=16404 fps=350 q=-0.0 size=N/A time=00:11:24.18 bitrate=N/A speed=14.6x    frame=16585 fps=350 q=-0.0 size=N/A time=00:11:31.73 bitrate=N/A speed=14.6x    frame=16773 fps=350 q=-0.0 size=N/A time=00:11:39.57 bitrate=N/A speed=14.6x    frame=16975 fps=350 q=-0.0 size=N/A time=00:11:47.99 bitrate=N/A speed=14.6x    frame=17157 fps=350 q=-0.0 size=N/A time=00:11:55.58 bitrate=N/A speed=14.6x    frame=17348 fps=350 q=-0.0 size=N/A time=00:12:03.55 bitrate=N/A speed=14.6x    frame=17539 fps=351 q=-0.0 size=N/A time=00:12:11.52 bitrate=N/A speed=14.6x    frame=17726 fps=351 q=-0.0 size=N/A time=00:12:19.32 bitrate=N/A speed=14.6x    frame=17921 fps=351 q=-0.0 size=N/A time=00:12:27.45 bitrate=N/A speed=14.6x    frame=18108 fps=351 q=-0.0 size=N/A time=00:12:35.25 bitrate=N/A speed=14.6x    frame=18291 fps=351 q=-0.0 size=N/A time=00:12:42.88 bitrate=N/A speed=14.6x    frame=18479 fps=351 q=-0.0 size=N/A time=00:12:50.72 bitrate=N/A speed=14.7x    frame=18654 fps=351 q=-0.0 size=N/A time=00:12:58.02 bitrate=N/A speed=14.6x    frame=18854 fps=351 q=-0.0 size=N/A time=00:13:06.36 bitrate=N/A speed=14.7x    frame=19038 fps=352 q=-0.0 size=N/A time=00:13:14.04 bitrate=N/A speed=14.7x    frame=19225 fps=352 q=-0.0 size=N/A time=00:13:21.84 bitrate=N/A speed=14.7x    frame=19417 fps=352 q=-0.0 size=N/A time=00:13:29.85 bitrate=N/A speed=14.7x    frame=19608 fps=352 q=-0.0 size=N/A time=00:13:37.81 bitrate=N/A speed=14.7x    frame=19794 fps=352 q=-0.0 size=N/A time=00:13:45.57 bitrate=N/A speed=14.7x    frame=19984 fps=352 q=-0.0 size=N/A time=00:13:53.49 bitrate=N/A speed=14.7x    frame=20181 fps=353 q=-0.0 size=N/A time=00:14:01.71 bitrate=N/A speed=14.7x    frame=20368 fps=353 q=-0.0 size=N/A time=00:14:09.51 bitrate=N/A speed=14.7x    frame=20548 fps=353 q=-0.0 size=N/A time=00:14:17.02 bitrate=N/A speed=14.7x    frame=20736 fps=353 q=-0.0 size=N/A time=00:14:24.86 bitrate=N/A speed=14.7x    frame=20931 fps=353 q=-0.0 size=N/A time=00:14:32.99 bitrate=N/A speed=14.7x    frame=21118 fps=353 q=-0.0 size=N/A time=00:14:40.79 bitrate=N/A speed=14.7x    frame=21304 fps=353 q=-0.0 size=N/A time=00:14:48.55 bitrate=N/A speed=14.7x    frame=21487 fps=353 q=-0.0 size=N/A time=00:14:56.18 bitrate=N/A speed=14.7x    frame=21675 fps=353 q=-0.0 size=N/A time=00:15:04.02 bitrate=N/A speed=14.7x    frame=21866 fps=353 q=-0.0 size=N/A time=00:15:11.99 bitrate=N/A speed=14.7x    frame=22063 fps=354 q=-0.0 size=N/A time=00:15:20.21 bitrate=N/A speed=14.7x    frame=22250 fps=354 q=-0.0 size=N/A time=00:15:28.01 bitrate=N/A speed=14.8x    frame=22443 fps=354 q=-0.0 size=N/A time=00:15:36.06 bitrate=N/A speed=14.8x    frame=22632 fps=354 q=-0.0 size=N/A time=00:15:43.94 bitrate=N/A speed=14.8x    frame=22825 fps=354 q=-0.0 size=N/A time=00:15:51.99 bitrate=N/A speed=14.8x    frame=23005 fps=354 q=-0.0 size=N/A time=00:15:59.50 bitrate=N/A speed=14.8x    frame=23193 fps=354 q=-0.0 size=N/A time=00:16:07.34 bitrate=N/A speed=14.8x    frame=23392 fps=354 q=-0.0 size=N/A time=00:16:15.64 bitrate=N/A speed=14.8x    frame=23584 fps=355 q=-0.0 size=N/A time=00:16:23.64 bitrate=N/A speed=14.8x    frame=23768 fps=355 q=-0.0 size=N/A time=00:16:31.32 bitrate=N/A speed=14.8x    frame=23966 fps=355 q=-0.0 size=N/A time=00:16:39.58 bitrate=N/A speed=14.8x    frame=24154 fps=355 q=-0.0 size=N/A time=00:16:47.42 bitrate=N/A speed=14.8x    frame=24346 fps=355 q=-0.0 size=N/A time=00:16:55.43 bitrate=N/A speed=14.8x    frame=24532 fps=355 q=-0.0 size=N/A time=00:17:03.18 bitrate=N/A speed=14.8x    frame=24729 fps=355 q=-0.0 size=N/A time=00:17:11.40 bitrate=N/A speed=14.8x    frame=24925 fps=355 q=-0.0 size=N/A time=00:17:19.58 bitrate=N/A speed=14.8x    frame=25111 fps=355 q=-0.0 size=N/A time=00:17:27.33 bitrate=N/A speed=14.8x    frame=25301 fps=355 q=-0.0 size=N/A time=00:17:35.26 bitrate=N/A speed=14.8x    frame=25486 fps=355 q=-0.0 size=N/A time=00:17:42.97 bitrate=N/A speed=14.8x    frame=25676 fps=356 q=-0.0 size=N/A time=00:17:50.90 bitrate=N/A speed=14.8x    frame=25860 fps=356 q=-0.0 size=N/A time=00:17:58.57 bitrate=N/A speed=14.8x    frame=26051 fps=356 q=-0.0 size=N/A time=00:18:06.54 bitrate=N/A speed=14.8x    frame=26248 fps=356 q=-0.0 size=N/A time=00:18:14.76 bitrate=N/A speed=14.8x    frame=26435 fps=356 q=-0.0 size=N/A time=00:18:22.55 bitrate=N/A speed=14.8x    frame=26625 fps=356 q=-0.0 size=N/A time=00:18:30.48 bitrate=N/A speed=14.8x    frame=26822 fps=356 q=-0.0 size=N/A time=00:18:38.70 bitrate=N/A speed=14.9x    frame=26995 fps=356 q=-0.0 size=N/A time=00:18:45.91 bitrate=N/A speed=14.9x    frame=27170 fps=356 q=-0.0 size=N/A time=00:18:53.21 bitrate=N/A speed=14.8x    frame=27349 fps=356 q=-0.0 size=N/A time=00:19:00.68 bitrate=N/A speed=14.8x    frame=27528 fps=356 q=-0.0 size=N/A time=00:19:08.14 bitrate=N/A speed=14.8x    frame=27706 fps=356 q=-0.0 size=N/A time=00:19:15.57 bitrate=N/A speed=14.8x    frame=27895 fps=356 q=-0.0 size=N/A time=00:19:23.45 bitrate=N/A speed=14.8x    frame=28080 fps=356 q=-0.0 size=N/A time=00:19:31.17 bitrate=N/A speed=14.8x    frame=28260 fps=356 q=-0.0 size=N/A time=00:19:38.67 bitrate=N/A speed=14.8x    frame=28445 fps=356 q=-0.0 size=N/A time=00:19:46.39 bitrate=N/A speed=14.8x    frame=28626 fps=356 q=-0.0 size=N/A time=00:19:53.94 bitrate=N/A speed=14.8x    frame=28802 fps=356 q=-0.0 size=N/A time=00:20:01.28 bitrate=N/A speed=14.8x    frame=28965 fps=355 q=-0.0 size=N/A time=00:20:08.08 bitrate=N/A speed=14.8x    frame=29130 fps=355 q=-0.0 size=N/A time=00:20:14.96 bitrate=N/A speed=14.8x    frame=29313 fps=355 q=-0.0 size=N/A time=00:20:22.59 bitrate=N/A speed=14.8x    frame=29480 fps=355 q=-0.0 size=N/A time=00:20:29.56 bitrate=N/A speed=14.8x    frame=29655 fps=355 q=-0.0 size=N/A time=00:20:36.86 bitrate=N/A speed=14.8x    frame=29829 fps=355 q=-0.0 size=N/A time=00:20:44.11 bitrate=N/A speed=14.8x    frame=29999 fps=355 q=-0.0 size=N/A time=00:20:51.20 bitrate=N/A speed=14.8x    frame=30178 fps=355 q=-0.0 size=N/A time=00:20:58.67 bitrate=N/A speed=14.8x    frame=30356 fps=355 q=-0.0 size=N/A time=00:21:06.09 bitrate=N/A speed=14.8x    frame=30551 fps=355 q=-0.0 size=N/A time=00:21:14.23 bitrate=N/A speed=14.8x    frame=30743 fps=355 q=-0.0 size=N/A time=00:21:22.23 bitrate=N/A speed=14.8x    frame=30935 fps=355 q=-0.0 size=N/A time=00:21:30.24 bitrate=N/A speed=14.8x    frame=31126 fps=355 q=-0.0 size=N/A time=00:21:38.21 bitrate=N/A speed=14.8x    frame=31310 fps=355 q=-0.0 size=N/A time=00:21:45.88 bitrate=N/A speed=14.8x    frame=31492 fps=355 q=-0.0 size=N/A time=00:21:53.47 bitrate=N/A speed=14.8x    frame=31683 fps=355 q=-0.0 size=N/A time=00:22:01.44 bitrate=N/A speed=14.8x    frame=31863 fps=355 q=-0.0 size=N/A time=00:22:08.95 bitrate=N/A speed=14.8x    frame=32045 fps=355 q=-0.0 size=N/A time=00:22:16.54 bitrate=N/A speed=14.8x    frame=32237 fps=355 q=-0.0 size=N/A time=00:22:24.55 bitrate=N/A speed=14.8x    frame=32415 fps=355 q=-0.0 size=N/A time=00:22:31.97 bitrate=N/A speed=14.8x    frame=32614 fps=355 q=-0.0 size=N/A time=00:22:40.27 bitrate=N/A speed=14.8x    frame=32758 fps=355 q=-0.0 size=N/A time=00:22:46.28 bitrate=N/A speed=14.8x    frame=32920 fps=355 q=-0.0 size=N/A time=00:22:53.03 bitrate=N/A speed=14.8x    frame=33108 fps=355 q=-0.0 size=N/A time=00:23:00.87 bitrate=N/A speed=14.8x    frame=33286 fps=355 q=-0.0 size=N/A time=00:23:08.30 bitrate=N/A speed=14.8x    frame=33460 fps=354 q=-0.0 size=N/A time=00:23:15.56 bitrate=N/A speed=14.8x    frame=33604 fps=354 q=-0.0 size=N/A time=00:23:21.56 bitrate=N/A speed=14.8x    frame=33752 fps=354 q=-0.0 size=N/A time=00:23:27.73 bitrate=N/A speed=14.8x    frame=33874 fps=353 q=-0.0 size=N/A time=00:23:32.82 bitrate=N/A speed=14.7x    frame=34036 fps=353 q=-0.0 size=N/A time=00:23:39.58 bitrate=N/A speed=14.7x    frame=34196 fps=353 q=-0.0 size=N/A time=00:23:46.25 bitrate=N/A speed=14.7x    frame=34340 fps=352 q=-0.0 size=N/A time=00:23:52.26 bitrate=N/A speed=14.7x    frame=34478 fps=352 q=-0.0 size=N/A time=00:23:58.01 bitrate=N/A speed=14.7x    frame=34664 fps=352 q=-0.0 size=N/A time=00:24:05.77 bitrate=N/A speed=14.7x    [Parsed_ssim_16 @ 00000225ee4cae80] SSIM Y:0.994033 (22.242470) U:0.993952 (22.184052) V:0.993558 (21.910010) All:0.993940 (22.175599)
[out#0/null @ 00000225e177dec0] video:14903KiB audio:271276KiB subtitle:0KiB other streams:0KiB global headers:0KiB muxing overhead: unknown
frame=34683 fps=352 q=-0.0 Lsize=N/A time=00:24:06.57 bitrate=N/A speed=14.7x    
